# xmcd
#
# Track frame offsets:
# 183
# 32130
# 51685
# 69363
# 97870
# 113263
# 138170
# 154223
# 193170
# 208113
# 219545
# 232035
# 241200
# 253385
# 265873
# 280150
# 291918
# 304045
#
# Disc length: 4253 seconds
#
#
# Revision: 0
# Processed by: cddbd v1.5.1PL2 Copyright (c) Steve Scherf et al.
# Submitted via: FreeRIP 2.944 
#
DISCID=11109b12
DTITLE=Bobby Womack - Safety Zone and B.W. Goes C&W
DYEAR=1989
DGENRE=Soul
TTITLE0=Everything´s Gonna Be Alright
TTITLE1=I Wish It Would Rain
TTITLE2=Trust Me
TTITLE3=Where There´s A Will There´s A Way
TTITLE4=Love Ain´t Something You Can Get For Free
TTITLE5=Something You Got
TTITLE6=Daylight
TTITLE7=I Feel A Groove Comin´ On
TTITLE8=Don´t Make This The Last Date For You And Me
TTITLE9=Behind Closed Doors
TTITLE10=Bouquet Of Roses
TTITLE11=Tired Of Living In The Country
TTITLE12=Tarnished Rings
TTITLE13=Big Bayou
TTITLE14=Song Of The Mockingbird
TTITLE15=I´d Be Ahead If I Could Quit While I´m Behind
TTITLE16=You
TTITLE17=I Take It On Home
EXTD=Original Recordings:\nSafety Zone: 1975 EMI/Manhattan Records\nB.W. Goes C&W: 1976 EMI/Manhattan Records
EXTT0=
EXTT1=
EXTT2=
EXTT3=
EXTT4=
EXTT5=
EXTT6=
EXTT7=
EXTT8=
EXTT9=
EXTT10=
EXTT11=
EXTT12=
EXTT13=
EXTT14=
EXTT15=
EXTT16=
EXTT17=
PLAYORDER=
